<svg aria-hidden="true" style="position: absolute; width: 0; height: 0; overflow: hidden;" version="1.1"
	xmlns="http://www.w3.org/2000/svg" xmlns:xlink="http://www.w3.org/1999/xlink">
	<defs>
		<symbol id="icon-logo" viewBox="0 0 147 32">
			<path fill="none" stroke="#121d2e" style="stroke: var(--color1, #121d2e)" stroke-linejoin="miter"
				stroke-linecap="butt" stroke-miterlimit="4" stroke-width="1.1429"
				d="M147.429 0h-147.429v32h147.429v-32z"></path>
			<path fill="#121d2e" style="fill: var(--color1, #121d2e)"
				d="M69.613 25.486h5.265v-2.373h-2.234v-13.445h2.234v-2.37h-5.265v18.187zM80.551 21.714h3.147v-11.035h4.352v-2.565h-11.851v2.565h4.352v11.035zM99.28 16.527c0.022-1.001-0.222-1.991-0.709-2.866-0.457-0.804-1.135-1.46-1.953-1.889-0.874-0.439-1.838-0.666-2.816-0.66s-1.94 0.242-2.809 0.69c-0.831 0.441-1.523 1.103-2.001 1.913-0.49 0.839-0.742 1.796-0.729 2.768-0.016 0.977 0.24 1.939 0.738 2.778 0.502 0.825 1.23 1.489 2.098 1.913 0.974 0.474 2.046 0.709 3.128 0.686 0.799 0.055 1.6-0.069 2.346-0.361s1.418-0.746 1.967-1.329l-1.613-1.749c-0.336 0.333-0.736 0.594-1.175 0.768-0.464 0.169-0.954 0.251-1.448 0.242-0.703 0.025-1.397-0.172-1.982-0.563-0.522-0.362-0.884-0.912-1.010-1.535h7.907c0.039-0.505 0.058-0.777 0.058-0.816l0.001 0.010zM93.859 13.399c0.625-0.019 1.234 0.192 1.714 0.592 0.471 0.404 0.776 0.968 0.855 1.584h-5.153c0.074-0.62 0.38-1.189 0.855-1.593 0.488-0.396 1.101-0.603 1.729-0.583zM105.402 21.87c0.902 0.019 1.8-0.122 2.651-0.418 0.666-0.223 1.255-0.631 1.699-1.175 0.385-0.494 0.59-1.103 0.583-1.729 0.039-0.651-0.177-1.292-0.602-1.787-0.385-0.417-0.875-0.722-1.418-0.883-0.69-0.194-1.39-0.347-2.098-0.457-0.567-0.071-1.126-0.195-1.671-0.369-0.152-0.038-0.287-0.127-0.382-0.251s-0.146-0.278-0.143-0.434c0.007-0.15 0.056-0.296 0.142-0.42s0.205-0.221 0.344-0.28c0.456-0.209 0.956-0.302 1.457-0.272 1.055-0.009 2.093 0.259 3.011 0.777l1.010-2.157c-0.567-0.317-1.18-0.543-1.817-0.67-0.724-0.161-1.464-0.243-2.206-0.243-0.883-0.019-1.763 0.126-2.593 0.427-0.659 0.232-1.238 0.646-1.671 1.194-0.38 0.507-0.581 1.125-0.571 1.759-0.044 0.666 0.175 1.323 0.611 1.829 0.395 0.42 0.894 0.728 1.447 0.894 0.695 0.198 1.402 0.347 2.118 0.447 0.548 0.053 1.088 0.164 1.613 0.33 0.146 0.033 0.277 0.114 0.372 0.23s0.149 0.261 0.152 0.411c0 0.635-0.641 0.952-1.923 0.952-0.657-0.003-1.311-0.098-1.943-0.281-0.596-0.16-1.165-0.405-1.69-0.729l-1.010 2.171c0.612 0.377 1.282 0.652 1.983 0.815 0.831 0.214 1.687 0.322 2.545 0.321v-0.001zM118.711 19.072c-0.352 0.264-0.784 0.401-1.224 0.389-0.177 0.011-0.353-0.015-0.52-0.077-0.166-0.062-0.317-0.158-0.442-0.282-0.243-0.282-0.366-0.649-0.343-1.021v-4.253h2.603v-2.331h-2.602v-2.547h-3.031v2.545h-1.609v2.334h1.613v4.294c-0.036 0.511 0.035 1.023 0.21 1.504s0.45 0.92 0.806 1.288c0.803 0.678 1.837 1.019 2.886 0.952 0.462 0.002 0.923-0.054 1.371-0.166 0.394-0.092 0.768-0.26 1.098-0.495l-0.816-2.134zM120.944 23.463h9.714v-1.749h-9.714v1.749zM137.417 25.486v-18.187h-5.246v2.37h2.215v13.445h-2.215v2.373h5.246z">
			</path>
			<path fill="#121d2e" style="fill: var(--color1, #121d2e)"
				d="M0 0h52.893l8.816 16.64-8.816 15.36h-52.893v-32z"></path>
			<path fill="#fff" style="fill: var(--color2, #fff)"
				d="M18.357 8.114h-5.887v13.6h3.147v-3.75h2.743c1.076 0.026 2.145-0.176 3.138-0.592 0.837-0.356 1.549-0.953 2.045-1.715 0.49-0.782 0.74-1.69 0.719-2.613 0.023-0.924-0.227-1.835-0.719-2.618-0.501-0.759-1.214-1.355-2.049-1.714-0.991-0.42-2.061-0.624-3.137-0.598zM18.182 15.4h-2.565v-4.721h2.565c0.77-0.054 1.534 0.162 2.161 0.613 0.25 0.217 0.446 0.488 0.574 0.793s0.184 0.635 0.164 0.965c0.019 0.327-0.038 0.654-0.166 0.956s-0.324 0.57-0.572 0.783c-0.626 0.449-1.388 0.665-2.157 0.611h-0.005zM29.761 12.641v-1.379h-2.895v10.453h3.031v-4.935c-0.030-0.395 0.019-0.792 0.146-1.168s0.328-0.722 0.592-1.017c0.274-0.252 0.596-0.446 0.946-0.572s0.722-0.179 1.094-0.158c0.117 0 0.343 0.013 0.68 0.039v-2.798c-0.728-0.014-1.451 0.118-2.127 0.389-0.586 0.236-1.094 0.632-1.466 1.143l-0.001 0.003zM40.618 21.87c1.026 0.019 2.041-0.217 2.953-0.686 0.844-0.437 1.55-1.099 2.040-1.913 0.499-0.84 0.754-1.802 0.738-2.778 0.017-0.976-0.237-1.938-0.735-2.778-0.49-0.814-1.196-1.476-2.040-1.913-0.92-0.454-1.932-0.69-2.958-0.69s-2.038 0.236-2.958 0.69c-0.848 0.435-1.558 1.097-2.050 1.913-0.499 0.84-0.754 1.802-0.738 2.778-0.016 0.977 0.24 1.939 0.738 2.778 0.492 0.816 1.202 1.478 2.050 1.913 0.916 0.468 1.934 0.704 2.962 0.686h-0.003zM40.618 19.383c-0.358 0.011-0.714-0.054-1.045-0.189s-0.63-0.339-0.878-0.598c-0.259-0.284-0.46-0.616-0.59-0.978s-0.187-0.746-0.168-1.13c-0.019-0.384 0.038-0.768 0.168-1.13s0.33-0.694 0.59-0.978c0.248-0.258 0.547-0.462 0.878-0.598s0.687-0.2 1.045-0.189c0.357-0.012 0.711 0.052 1.041 0.188s0.628 0.339 0.873 0.598c0.518 0.577 0.786 1.335 0.747 2.109 0.039 0.774-0.23 1.532-0.747 2.109-0.245 0.259-0.543 0.463-0.873 0.599s-0.685 0.2-1.042 0.188v-0.002z">
			</path>
		</symbol>
		<symbol id="icon-emptyHeart" viewBox="0 0 34 32">
			<path
				d="M17.143 31.235c-0.488 0-0.959-0.177-1.325-0.498-1.385-1.211-2.72-2.349-3.899-3.353l-0.006-0.005c-3.454-2.944-6.437-5.486-8.512-7.99-2.32-2.799-3.401-5.454-3.401-8.353 0-2.817 0.966-5.416 2.72-7.319 1.775-1.925 4.21-2.985 6.858-2.985 1.979 0 3.792 0.626 5.387 1.86 0.805 0.623 1.535 1.385 2.178 2.274 0.643-0.889 1.373-1.651 2.178-2.274 1.595-1.234 3.408-1.86 5.387-1.86 2.648 0 5.083 1.060 6.858 2.985 1.754 1.902 2.72 4.502 2.72 7.319 0 2.9-1.080 5.554-3.4 8.353-2.075 2.504-5.058 5.046-8.512 7.989-1.18 1.006-2.518 2.145-3.906 3.36-0.366 0.321-0.837 0.497-1.325 0.497zM9.578 2.741c-2.080 0-3.991 0.83-5.382 2.338-1.411 1.53-2.188 3.646-2.188 5.957 0 2.439 0.906 4.62 2.939 7.072 1.964 2.37 4.886 4.86 8.268 7.743l0.006 0.005c1.183 1.008 2.523 2.15 3.919 3.37 1.404-1.222 2.746-2.367 3.931-3.376 3.383-2.883 6.304-5.372 8.268-7.742 2.032-2.452 2.938-4.633 2.938-7.072 0-2.311-0.777-4.427-2.188-5.957-1.39-1.508-3.301-2.338-5.381-2.338-1.524 0-2.923 0.484-4.159 1.44-1.101 0.852-1.868 1.928-2.318 2.682-0.231 0.387-0.638 0.619-1.089 0.619s-0.858-0.231-1.089-0.619c-0.45-0.753-1.216-1.83-2.318-2.682-1.235-0.955-2.635-1.44-4.158-1.44z">
			</path>
		</symbol>
		<symbol id="icon-threeHorizontalStripes" viewBox="0 0 48 32">
			<path d="M1.5 31h45v-5h-45v5zM1.5 18.5h45v-5h-45v5zM1.5 1v5h45v-5h-45z"></path>
		</symbol>
		<symbol id="icon-logout" viewBox="0 0 32 32">
			<path
				d="M25.293 9.293l-1.414 1.414 4.293 4.293h-14.172v2h14.172l-4.293 4.293 1.414 1.414 6.707-6.707-6.707-6.707z">
			</path>
			<path
				d="M22 30h-20v-28h20v2h2v-3c0-0.553-0.447-1-1-1h-22c-0.553 0-1 0.447-1 1v30c0 0.553 0.447 1 1 1h22c0.553 0 1-0.447 1-1v-3h-2v2z">
			</path>
		</symbol>
		<symbol id="icon-arrowRight" viewBox="0 0 48 32">
			<path
				d="M47.707 15.293l-15-15c-0.391-0.391-1.024-0.391-1.414 0s-0.391 1.023 0 1.414l13.293 13.293h-43.586c-0.553 0-1 0.447-1 1s0.447 1 1 1h43.586l-13.293 13.293c-0.391 0.391-0.391 1.024 0 1.414 0.195 0.195 0.451 0.293 0.707 0.293s0.512-0.098 0.707-0.293l15-15c0.391-0.391 0.391-1.023 0-1.414z">
			</path>
		</symbol>
		<symbol id="icon-crossForClosing" viewBox="0 0 26 26">
		<path d="M20.5832 6.94413L19.0557 5.41663L12.9998 11.4725L6.944 5.41663L5.4165 6.94413L11.4723 13L5.4165 19.0558L6.944 20.5833L12.9998 14.5275L19.0557 20.5833L20.5832 19.0558L14.5273 13L20.5832 6.94413Z"></path>
		</symbol>
		<symbol id="icon-heart" viewBox="0 0 34 32">
			<path
				d="M17.143 31.771l-2.4-2.4c-8.914-7.886-14.743-13.2-14.743-19.714 0-5.314 4.114-9.429 9.429-9.429 2.914 0 5.829 1.371 7.714 3.6 1.886-2.229 4.8-3.6 7.714-3.6 5.314 0 9.429 4.114 9.429 9.429 0 6.514-5.829 11.829-14.743 19.714l-2.4 2.4z">
			</path>
		</symbol>
		<symbol xmlns="http://www.w3.org/2000/svg" viewBox="0 0 510 510" id="linkedin-logo">
			<path
				d="M459 0H51C22.95 0 0 22.95 0 51v408c0 28.05 22.95 51 51 51h408c28.05 0 51-22.95 51-51V51c0-28.05-22.95-51-51-51zM153 433.5H76.5V204H153v229.5zm-38.25-272.85c-25.5 0-45.9-20.4-45.9-45.9s20.4-45.9 45.9-45.9 45.9 20.4 45.9 45.9-20.4 45.9-45.9 45.9zM433.5 433.5H357V298.35c0-20.399-17.85-38.25-38.25-38.25s-38.25 17.851-38.25 38.25V433.5H204V204h76.5v30.6c12.75-20.4 40.8-35.7 63.75-35.7 48.45 0 89.25 40.8 89.25 89.25V433.5z">
			</path>
		</symbol>
		<symbol xmlns="http://www.w3.org/2000/svg" viewBox="0 0 512 512" id="email-logo">
			<path
				d="M467 61H45C20.218 61 0 81.196 0 106v300c0 24.72 20.128 45 45 45h422c24.72 0 45-20.128 45-45V106c0-24.72-20.128-45-45-45zm-6.214 30L256.954 294.833 51.359 91h409.427zM30 399.788V112.069l144.479 143.24L30 399.788zM51.213 421l144.57-144.57 50.657 50.222c5.864 5.814 15.327 5.795 21.167-.046L317 277.213 460.787 421H51.213zM482 399.787L338.213 256 482 112.212v287.575z">
			</path>
		</symbol>
		<svg xmlns="http://www.w3.org/2000/svg" viewBox="0 0 24 24" id="github-logo">
			<path
				d="M12 0c-6.626 0-12 5.373-12 12 0 5.302 3.438 9.8 8.207 11.387.599.111.793-.261.793-.577v-2.234c-3.338.726-4.033-1.416-4.033-1.416-.546-1.387-1.333-1.756-1.333-1.756-1.089-.745.083-.729.083-.729 1.205.084 1.839 1.237 1.839 1.237 1.07 1.834 2.807 1.304 3.492.997.107-.775.418-1.305.762-1.604-2.665-.305-5.467-1.334-5.467-5.931 0-1.311.469-2.381 1.236-3.221-.124-.303-.535-1.524.117-3.176 0 0 1.008-.322 3.301 1.23.957-.266 1.983-.399 3.003-.404 1.02.005 2.047.138 3.006.404 2.291-1.552 3.297-1.23 3.297-1.23.653 1.653.242 2.874.118 3.176.77.84 1.235 1.911 1.235 3.221 0 4.609-2.807 5.624-5.479 5.921.43.372.823 1.102.823 2.222v3.293c0 .319.192.694.801.576 4.765-1.589 8.199-6.086 8.199-11.386 0-6.627-5.373-12-12-12z" />
		</svg>

	</defs>
</svg>
